<?xml version="1.0" encoding="utf-8"?>
<!-- Generator: Adobe Illustrator 22.0.1, SVG Export Plug-In . SVG Version: 6.00 Build 0)  -->
<svg version="1.1" xmlns="http://www.w3.org/2000/svg" xmlns:xlink="http://www.w3.org/1999/xlink" x="0px" y="0px"
	 viewBox="0 0 231.7 123" style="enable-background:new 0 0 231.7 123;" xml:space="preserve">
<style type="text/css">
	.st0{display:none;}
	.st1{display:inline;fill:none;}
	.st2{fill:#FFFFFF;}
</style>
<g id="Exclusion_zone" class="st0">
	<rect x="0" y="0" class="st1" width="18.9" height="18.5"/>
	<rect x="0" y="104.4" class="st1" width="18.9" height="18.5"/>
	<rect x="212.9" y="0" class="st1" width="18.9" height="18.5"/>
	<rect x="212.9" y="104.4" class="st1" width="18.9" height="18.5"/>
</g>
<g id="Artwork">
	<g>
		<path class="st2" d="M77.1,104.4H60.9v-8.7l-0.4,0c-4.3,7-11.8,10.3-19,10.3c-18.2,0-22.7-10.2-22.7-25.6l0-38.2h17.1l0,35.1
			c0,10.2,3,15.3,10.9,15.3c9.3,0,13.2-5.2,13.2-17.8l0-32.6l17.1,0L77.1,104.4z"/>
		<path class="st2" d="M88.4,61.3c1-16,15.3-20.8,29.2-20.8c12.4,0,27.3,2.8,27.3,17.7l0,32.4c0,5.7,0.6,11.3,2.2,13.8h-17.3
			c-0.6-1.9-1.1-4-1.2-6c-5.4,5.7-13.3,7.7-20.9,7.7c-11.8,0-21.2-5.9-21.2-18.6c0-14.1,10.6-17.4,21.2-18.9
			c10.5-1.6,20.2-1.2,20.2-8.2c0-7.3-5.1-8.4-11.1-8.4c-6.5,0-10.7,2.7-11.3,9.4H88.4z M127.9,74c-2.9,2.5-8.9,2.6-14.2,3.6
			c-5.3,1.1-10.1,2.9-10.1,9.1c0,6.4,4.9,7.9,10.5,7.9c13.3,0,13.8-10.6,13.8-14.3L127.9,74z"/>
		<path class="st2" d="M158,18.5l17.1,0l0,85.9H158L158,18.5z"/>
		<path class="st2" d="M212.9,61.8l-18.9,0V43.3l18.9,0L212.9,61.8z M194,85.9l18.9,0l0,18.5l-18.9,0L194,85.9z"/>
	</g>
</g>
</svg>
